solid OpenSCAD_Model
  facet normal -1 0 0
    outer loop
      vertex 0.132 0.11 0.0859995
      vertex 0.132 0.388 0.0999994
      vertex 0.132 0.388 0.0820002
    endloop
  endfacet
  facet normal -1 0 0
    outer loop
      vertex 0.132 0.11 0.0959997
      vertex 0.132 0.388 0.0999994
      vertex 0.132 0.11 0.0859995
    endloop
  endfacet
  facet normal -1 0 0
    outer loop
      vertex 0.132 0 0.0820002
      vertex 0.132 0.11 0.0859995
      vertex 0.132 0.388 0.0820002
    endloop
  endfacet
  facet normal -1 -0 0
    outer loop
      vertex 0.132 0.0999994 0.0859995
      vertex 0.132 0 0.0820002
      vertex 0.132 0.0999994 0.0959997
    endloop
  endfacet
  facet normal -1 -0 0
    outer loop
      vertex 0.132 0.11 0.0859995
      vertex 0.132 0 0.0820002
      vertex 0.132 0.0999994 0.0859995
    endloop
  endfacet
  facet normal -1 -0 0
    outer loop
      vertex 0.132 0.388 0.0999994
      vertex 0.132 0.11 0.0959997
      vertex 0.132 0.388 0.0999998
    endloop
  endfacet
  facet normal -1 0 0
    outer loop
      vertex 0.132 0 0.0999998
      vertex 0.132 0.11 0.0959997
      vertex 0.132 0.0999994 0.0959997
    endloop
  endfacet
  facet normal -1 0 0
    outer loop
      vertex 0.132 0.11 0.0959997
      vertex 0.132 0 0.0999998
      vertex 0.132 0.388 0.0999998
    endloop
  endfacet
  facet normal -1 0 0
    outer loop
      vertex 0.132 0 0.0999998
      vertex 0.132 0.0999994 0.0959997
      vertex 0.132 0 0.0820002
    endloop
  endfacet
  facet normal -0 0 1
    outer loop
      vertex 0.132 0.388 0.0999998
      vertex 0.15 0 0.0999998
      vertex 0.15 0.388 0.0999998
    endloop
  endfacet
  facet normal 0 0 1
    outer loop
      vertex 0.15 0 0.0999998
      vertex 0.132 0.388 0.0999998
      vertex 0.132 0 0.0999998
    endloop
  endfacet
  facet normal 1 -0 0
    outer loop
      vertex 0.15 0 0.0999998
      vertex 0.15 0.388 0.0820002
      vertex 0.15 0.388 0.0999998
    endloop
  endfacet
  facet normal 1 0 0
    outer loop
      vertex 0.15 0.388 0.0820002
      vertex 0.15 0 0.0999998
      vertex 0.15 0 0.0820002
    endloop
  endfacet
  facet normal 0 0 -1
    outer loop
      vertex 0.146 0.11 0.0820002
      vertex 0.15 0.388 0.0820002
      vertex 0.15 0 0.0820002
    endloop
  endfacet
  facet normal 0 0 -1
    outer loop
      vertex 0.146 0.11 0.0820002
      vertex 0.15 0 0.0820002
      vertex 0.146 0.0999994 0.0820002
    endloop
  endfacet
  facet normal 0 0 -1
    outer loop
      vertex 0.15 0 0.0820002
      vertex 0.136 0.0999994 0.0820002
      vertex 0.146 0.0999994 0.0820002
    endloop
  endfacet
  facet normal -0 0 -1
    outer loop
      vertex 0.136 0.0999994 0.0820002
      vertex 0.132 0 0.0820002
      vertex 0.136 0.11 0.0820002
    endloop
  endfacet
  facet normal 0 0 -1
    outer loop
      vertex 0.132 0 0.0820002
      vertex 0.136 0.0999994 0.0820002
      vertex 0.15 0 0.0820002
    endloop
  endfacet
  facet normal 0 0 -1
    outer loop
      vertex 0.136 0.11 0.0820002
      vertex 0.15 0.388 0.0820002
      vertex 0.146 0.11 0.0820002
    endloop
  endfacet
  facet normal 0 0 -1
    outer loop
      vertex 0.136 0.11 0.0820002
      vertex 0.132 0.388 0.0820002
      vertex 0.15 0.388 0.0820002
    endloop
  endfacet
  facet normal 0 0 -1
    outer loop
      vertex 0.132 0.388 0.0820002
      vertex 0.136 0.11 0.0820002
      vertex 0.132 0 0.0820002
    endloop
  endfacet
  facet normal 0 -1 0
    outer loop
      vertex 0.132 0 0.0820002
      vertex 0.15 0 0.0999998
      vertex 0.132 0 0.0999998
    endloop
  endfacet
  facet normal 0 -1 -0
    outer loop
      vertex 0.15 0 0.0999998
      vertex 0.132 0 0.0820002
      vertex 0.15 0 0.0820002
    endloop
  endfacet
  facet normal 0 0 0
    outer loop
      vertex 0.15 0.388 -0.0999998
      vertex 0.15 0.388 -0.0999994
      vertex 0.15 0.388 -0.0820002
    endloop
  endfacet
  facet normal 0 1 0
    outer loop
      vertex 0.132 0.388 -0.0999998
      vertex 0.15 0.388 -0.0999994
      vertex 0.15 0.388 -0.0999998
    endloop
  endfacet
  facet normal 0 1 0
    outer loop
      vertex 0.15 0.388 -0.0999994
      vertex 0.132 0.388 -0.0999998
      vertex 0.132 0.388 -0.0999994
    endloop
  endfacet
  facet normal 0 -1 0
    outer loop
      vertex -0.132 0.388 -0.0999994
      vertex 0.132 0.388 -0.0820002
      vertex -0.132 0.388 -0.0820002
    endloop
  endfacet
  facet normal 0 -1 -0
    outer loop
      vertex 0.132 0.388 -0.0820002
      vertex -0.132 0.388 -0.0999994
      vertex 0.132 0.388 -0.0999994
    endloop
  endfacet
  facet normal 0 -1 0
    outer loop
      vertex -0.132 0.388 -0.0820002
      vertex -0.132 0.388 0.0820002
      vertex -0.15 0.388 0.0820002
    endloop
  endfacet
  facet normal 0 -1 0
    outer loop
      vertex -0.132 0.388 0.0820002
      vertex -0.132 0.388 -0.0820002
      vertex 0.132 0.388 0.0820002
    endloop
  endfacet
  facet normal 0 -1 0
    outer loop
      vertex -0.132 0.388 -0.0820002
      vertex -0.15 0.388 0.0820002
      vertex -0.15 0.388 -0.0820002
    endloop
  endfacet
  facet normal 0 -1 0
    outer loop
      vertex 0.132 0.388 -0.0820002
      vertex 0.132 0.388 0.0820002
      vertex -0.132 0.388 -0.0820002
    endloop
  endfacet
  facet normal 0 -1 0
    outer loop
      vertex 0.132 0.388 0.0820002
      vertex 0.132 0.388 -0.0820002
      vertex 0.15 0.388 0.0820002
    endloop
  endfacet
  facet normal 0 -1 -0
    outer loop
      vertex 0.15 0.388 0.0820002
      vertex 0.132 0.388 -0.0820002
      vertex 0.15 0.388 -0.0820002
    endloop
  endfacet
  facet normal 0 -1 0
    outer loop
      vertex -0.132 0.388 0.0820002
      vertex 0.132 0.388 0.0999994
      vertex -0.132 0.388 0.0999994
    endloop
  endfacet
  facet normal 0 -1 -0
    outer loop
      vertex 0.132 0.388 0.0999994
      vertex -0.132 0.388 0.0820002
      vertex 0.132 0.388 0.0820002
    endloop
  endfacet
  facet normal 0 1 0
    outer loop
      vertex 0.15 0.388 0.0999998
      vertex 0.15 0.388 0.0999994
      vertex 0.132 0.388 0.0999998
    endloop
  endfacet
  facet normal 0 0 0
    outer loop
      vertex 0.15 0.388 0.0820002
      vertex 0.15 0.388 0.0999994
      vertex 0.15 0.388 0.0999998
    endloop
  endfacet
  facet normal 0 1 0
    outer loop
      vertex 0.132 0.388 0.0999998
      vertex 0.15 0.388 0.0999994
      vertex 0.132 0.388 0.0999994
    endloop
  endfacet
  facet normal 0 1 0
    outer loop
      vertex -0.132 0.388 -0.0999994
      vertex -0.132 0.388 -0.0999998
      vertex -0.15 0.388 -0.0999994
    endloop
  endfacet
  facet normal 0 -0 0
    outer loop
      vertex -0.15 0.388 -0.0999994
      vertex -0.15 0.388 -0.0999998
      vertex -0.15 0.388 -0.0820002
    endloop
  endfacet
  facet normal 0 1 0
    outer loop
      vertex -0.15 0.388 -0.0999998
      vertex -0.15 0.388 -0.0999994
      vertex -0.132 0.388 -0.0999998
    endloop
  endfacet
  facet normal 0 1 0
    outer loop
      vertex -0.15 0.388 0.0999994
      vertex -0.132 0.388 0.0999998
      vertex -0.132 0.388 0.0999994
    endloop
  endfacet
  facet normal 0 1 0
    outer loop
      vertex -0.132 0.388 0.0999998
      vertex -0.15 0.388 0.0999994
      vertex -0.15 0.388 0.0999998
    endloop
  endfacet
  facet normal 0 -0 0
    outer loop
      vertex -0.15 0.388 0.0999994
      vertex -0.15 0.388 0.0820002
      vertex -0.15 0.388 0.0999998
    endloop
  endfacet
  facet normal -1 0 0
    outer loop
      vertex 0.132 0.11 -0.0959997
      vertex 0.132 0.388 -0.0999994
      vertex 0.132 0.388 -0.0999998
    endloop
  endfacet
  facet normal -1 0 0
    outer loop
      vertex 0.132 0.388 -0.0999994
      vertex 0.132 0.11 -0.0959997
      vertex 0.132 0.388 -0.0820002
    endloop
  endfacet
  facet normal -1 0 0
    outer loop
      vertex 0.132 0 -0.0999998
      vertex 0.132 0.11 -0.0959997
      vertex 0.132 0.388 -0.0999998
    endloop
  endfacet
  facet normal -1 -0 0
    outer loop
      vertex 0.132 0.0999994 -0.0959997
      vertex 0.132 0 -0.0999998
      vertex 0.132 0.0999994 -0.0859995
    endloop
  endfacet
  facet normal -1 -0 0
    outer loop
      vertex 0.132 0.11 -0.0959997
      vertex 0.132 0 -0.0999998
      vertex 0.132 0.0999994 -0.0959997
    endloop
  endfacet
  facet normal -1 0 0
    outer loop
      vertex 0.132 0.11 -0.0859995
      vertex 0.132 0.388 -0.0820002
      vertex 0.132 0.11 -0.0959997
    endloop
  endfacet
  facet normal -1 0 0
    outer loop
      vertex 0.132 0 -0.0820002
      vertex 0.132 0.11 -0.0859995
      vertex 0.132 0.0999994 -0.0859995
    endloop
  endfacet
  facet normal -1 0 0
    outer loop
      vertex 0.132 0.11 -0.0859995
      vertex 0.132 0 -0.0820002
      vertex 0.132 0.388 -0.0820002
    endloop
  endfacet
  facet normal -1 0 0
    outer loop
      vertex 0.132 0 -0.0820002
      vertex 0.132 0.0999994 -0.0859995
      vertex 0.132 0 -0.0999998
    endloop
  endfacet
  facet normal 0 0 1
    outer loop
      vertex 0.15 0.388 -0.0820002
      vertex 0.136 0.11 -0.0820002
      vertex 0.146 0.11 -0.0820002
    endloop
  endfacet
  facet normal 0 0 1
    outer loop
      vertex 0.132 0 -0.0820002
      vertex 0.136 0.11 -0.0820002
      vertex 0.132 0.388 -0.0820002
    endloop
  endfacet
  facet normal -0 0 1
    outer loop
      vertex 0.132 0.388 -0.0820002
      vertex 0.136 0.11 -0.0820002
      vertex 0.15 0.388 -0.0820002
    endloop
  endfacet
  facet normal 0 0 1
    outer loop
      vertex 0.15 0.388 -0.0820002
      vertex 0.146 0.11 -0.0820002
      vertex 0.15 0 -0.0820002
    endloop
  endfacet
  facet normal -0 0 1
    outer loop
      vertex 0.146 0.0999994 -0.0820002
      vertex 0.15 0 -0.0820002
      vertex 0.146 0.11 -0.0820002
    endloop
  endfacet
  facet normal -0 0 1
    outer loop
      vertex 0.136 0.0999994 -0.0820002
      vertex 0.15 0 -0.0820002
      vertex 0.146 0.0999994 -0.0820002
    endloop
  endfacet
  facet normal 0 0 1
    outer loop
      vertex 0.136 0.0999994 -0.0820002
      vertex 0.132 0 -0.0820002
      vertex 0.15 0 -0.0820002
    endloop
  endfacet
  facet normal 0 0 1
    outer loop
      vertex 0.136 0.11 -0.0820002
      vertex 0.132 0 -0.0820002
      vertex 0.136 0.0999994 -0.0820002
    endloop
  endfacet
  facet normal 1 -0 0
    outer loop
      vertex 0.15 0 -0.0820002
      vertex 0.15 0.388 -0.0999998
      vertex 0.15 0.388 -0.0820002
    endloop
  endfacet
  facet normal 1 0 0
    outer loop
      vertex 0.15 0.388 -0.0999998
      vertex 0.15 0 -0.0820002
      vertex 0.15 0 -0.0999998
    endloop
  endfacet
  facet normal 0 0 -1
    outer loop
      vertex 0.132 0 -0.0999998
      vertex 0.15 0.388 -0.0999998
      vertex 0.15 0 -0.0999998
    endloop
  endfacet
  facet normal -0 0 -1
    outer loop
      vertex 0.15 0.388 -0.0999998
      vertex 0.132 0 -0.0999998
      vertex 0.132 0.388 -0.0999998
    endloop
  endfacet
  facet normal 0 -1 0
    outer loop
      vertex 0.132 0 -0.0999998
      vertex 0.15 0 -0.0820002
      vertex 0.132 0 -0.0820002
    endloop
  endfacet
  facet normal 0 -1 -0
    outer loop
      vertex 0.15 0 -0.0820002
      vertex 0.132 0 -0.0999998
      vertex 0.15 0 -0.0999998
    endloop
  endfacet
  facet normal -1 0 0
    outer loop
      vertex -0.15 0 0.0820002
      vertex -0.15 0.388 0.0999998
      vertex -0.15 0.388 0.0820002
    endloop
  endfacet
  facet normal -1 -0 0
    outer loop
      vertex -0.15 0.388 0.0999998
      vertex -0.15 0 0.0820002
      vertex -0.15 0 0.0999998
    endloop
  endfacet
  facet normal -0 0 1
    outer loop
      vertex -0.15 0.388 0.0999998
      vertex -0.132 0 0.0999998
      vertex -0.132 0.388 0.0999998
    endloop
  endfacet
  facet normal 0 0 1
    outer loop
      vertex -0.132 0 0.0999998
      vertex -0.15 0.388 0.0999998
      vertex -0.15 0 0.0999998
    endloop
  endfacet
  facet normal 1 0 0
    outer loop
      vertex -0.132 0.11 0.0959997
      vertex -0.132 0.388 0.0999994
      vertex -0.132 0.388 0.0999998
    endloop
  endfacet
  facet normal 1 0 0
    outer loop
      vertex -0.132 0.388 0.0999994
      vertex -0.132 0.11 0.0959997
      vertex -0.132 0.388 0.0820002
    endloop
  endfacet
  facet normal 1 -0 0
    outer loop
      vertex -0.132 0 0.0999998
      vertex -0.132 0.11 0.0959997
      vertex -0.132 0.388 0.0999998
    endloop
  endfacet
  facet normal 1 0 0
    outer loop
      vertex -0.132 0.0999994 0.0959997
      vertex -0.132 0 0.0999998
      vertex -0.132 0.0999994 0.0859995
    endloop
  endfacet
  facet normal 1 0 0
    outer loop
      vertex -0.132 0.11 0.0959997
      vertex -0.132 0 0.0999998
      vertex -0.132 0.0999994 0.0959997
    endloop
  endfacet
  facet normal 1 -0 0
    outer loop
      vertex -0.132 0.11 0.0859995
      vertex -0.132 0.388 0.0820002
      vertex -0.132 0.11 0.0959997
    endloop
  endfacet
  facet normal 1 0 0
    outer loop
      vertex -0.132 0 0.0820002
      vertex -0.132 0.11 0.0859995
      vertex -0.132 0.0999994 0.0859995
    endloop
  endfacet
  facet normal 1 0 0
    outer loop
      vertex -0.132 0.11 0.0859995
      vertex -0.132 0 0.0820002
      vertex -0.132 0.388 0.0820002
    endloop
  endfacet
  facet normal 1 0 0
    outer loop
      vertex -0.132 0 0.0820002
      vertex -0.132 0.0999994 0.0859995
      vertex -0.132 0 0.0999998
    endloop
  endfacet
  facet normal 0 0 -1
    outer loop
      vertex -0.136 0.11 0.0820002
      vertex -0.132 0 0.0820002
      vertex -0.136 0.0999994 0.0820002
    endloop
  endfacet
  facet normal 0 0 -1
    outer loop
      vertex -0.132 0 0.0820002
      vertex -0.146 0.0999994 0.0820002
      vertex -0.136 0.0999994 0.0820002
    endloop
  endfacet
  facet normal 0 0 -1
    outer loop
      vertex -0.15 0 0.0820002
      vertex -0.146 0.11 0.0820002
      vertex -0.146 0.0999994 0.0820002
    endloop
  endfacet
  facet normal 0 0 -1
    outer loop
      vertex -0.15 0 0.0820002
      vertex -0.146 0.0999994 0.0820002
      vertex -0.132 0 0.0820002
    endloop
  endfacet
  facet normal -0 0 -1
    outer loop
      vertex -0.146 0.11 0.0820002
      vertex -0.15 0 0.0820002
      vertex -0.15 0.388 0.0820002
    endloop
  endfacet
  facet normal 0 0 -1
    outer loop
      vertex -0.132 0 0.0820002
      vertex -0.136 0.11 0.0820002
      vertex -0.132 0.388 0.0820002
    endloop
  endfacet
  facet normal 0 0 -1
    outer loop
      vertex -0.146 0.11 0.0820002
      vertex -0.132 0.388 0.0820002
      vertex -0.136 0.11 0.0820002
    endloop
  endfacet
  facet normal -0 0 -1
    outer loop
      vertex -0.132 0.388 0.0820002
      vertex -0.146 0.11 0.0820002
      vertex -0.15 0.388 0.0820002
    endloop
  endfacet
  facet normal 0 -1 0
    outer loop
      vertex -0.15 0 0.0820002
      vertex -0.132 0 0.0999998
      vertex -0.15 0 0.0999998
    endloop
  endfacet
  facet normal 0 -1 -0
    outer loop
      vertex -0.132 0 0.0999998
      vertex -0.15 0 0.0820002
      vertex -0.132 0 0.0820002
    endloop
  endfacet
  facet normal -1 0 0
    outer loop
      vertex -0.15 0 -0.0999998
      vertex -0.15 0.388 -0.0820002
      vertex -0.15 0.388 -0.0999998
    endloop
  endfacet
  facet normal -1 -0 0
    outer loop
      vertex -0.15 0.388 -0.0820002
      vertex -0.15 0 -0.0999998
      vertex -0.15 0 -0.0820002
    endloop
  endfacet
  facet normal 0 0 1
    outer loop
      vertex -0.132 0.388 -0.0820002
      vertex -0.136 0.11 -0.0820002
      vertex -0.132 0 -0.0820002
    endloop
  endfacet
  facet normal 0 0 1
    outer loop
      vertex -0.132 0.388 -0.0820002
      vertex -0.146 0.11 -0.0820002
      vertex -0.136 0.11 -0.0820002
    endloop
  endfacet
  facet normal -0 0 1
    outer loop
      vertex -0.15 0.388 -0.0820002
      vertex -0.146 0.11 -0.0820002
      vertex -0.132 0.388 -0.0820002
    endloop
  endfacet
  facet normal -0 0 1
    outer loop
      vertex -0.136 0.0999994 -0.0820002
      vertex -0.132 0 -0.0820002
      vertex -0.136 0.11 -0.0820002
    endloop
  endfacet
  facet normal -0 0 1
    outer loop
      vertex -0.146 0.0999994 -0.0820002
      vertex -0.132 0 -0.0820002
      vertex -0.136 0.0999994 -0.0820002
    endloop
  endfacet
  facet normal 0 0 1
    outer loop
      vertex -0.15 0 -0.0820002
      vertex -0.146 0.11 -0.0820002
      vertex -0.15 0.388 -0.0820002
    endloop
  endfacet
  facet normal 0 0 1
    outer loop
      vertex -0.146 0.0999994 -0.0820002
      vertex -0.15 0 -0.0820002
      vertex -0.132 0 -0.0820002
    endloop
  endfacet
  facet normal 0 0 1
    outer loop
      vertex -0.146 0.11 -0.0820002
      vertex -0.15 0 -0.0820002
      vertex -0.146 0.0999994 -0.0820002
    endloop
  endfacet
  facet normal 1 -0 0
    outer loop
      vertex -0.132 0.11 -0.0859995
      vertex -0.132 0.388 -0.0999994
      vertex -0.132 0.388 -0.0820002
    endloop
  endfacet
  facet normal 1 -0 0
    outer loop
      vertex -0.132 0.11 -0.0959997
      vertex -0.132 0.388 -0.0999994
      vertex -0.132 0.11 -0.0859995
    endloop
  endfacet
  facet normal 1 -0 0
    outer loop
      vertex -0.132 0 -0.0820002
      vertex -0.132 0.11 -0.0859995
      vertex -0.132 0.388 -0.0820002
    endloop
  endfacet
  facet normal 1 0 0
    outer loop
      vertex -0.132 0.0999994 -0.0859995
      vertex -0.132 0 -0.0820002
      vertex -0.132 0.0999994 -0.0959997
    endloop
  endfacet
  facet normal 1 0 0
    outer loop
      vertex -0.132 0.11 -0.0859995
      vertex -0.132 0 -0.0820002
      vertex -0.132 0.0999994 -0.0859995
    endloop
  endfacet
  facet normal 1 0 0
    outer loop
      vertex -0.132 0.388 -0.0999994
      vertex -0.132 0.11 -0.0959997
      vertex -0.132 0.388 -0.0999998
    endloop
  endfacet
  facet normal 1 0 0
    outer loop
      vertex -0.132 0 -0.0999998
      vertex -0.132 0.11 -0.0959997
      vertex -0.132 0.0999994 -0.0959997
    endloop
  endfacet
  facet normal 1 0 0
    outer loop
      vertex -0.132 0.11 -0.0959997
      vertex -0.132 0 -0.0999998
      vertex -0.132 0.388 -0.0999998
    endloop
  endfacet
  facet normal 1 0 0
    outer loop
      vertex -0.132 0 -0.0999998
      vertex -0.132 0.0999994 -0.0959997
      vertex -0.132 0 -0.0820002
    endloop
  endfacet
  facet normal 0 0 -1
    outer loop
      vertex -0.15 0 -0.0999998
      vertex -0.132 0.388 -0.0999998
      vertex -0.132 0 -0.0999998
    endloop
  endfacet
  facet normal -0 0 -1
    outer loop
      vertex -0.132 0.388 -0.0999998
      vertex -0.15 0 -0.0999998
      vertex -0.15 0.388 -0.0999998
    endloop
  endfacet
  facet normal 0 -1 0
    outer loop
      vertex -0.15 0 -0.0999998
      vertex -0.132 0 -0.0820002
      vertex -0.15 0 -0.0820002
    endloop
  endfacet
  facet normal 0 -1 -0
    outer loop
      vertex -0.132 0 -0.0820002
      vertex -0.15 0 -0.0999998
      vertex -0.132 0 -0.0999998
    endloop
  endfacet
  facet normal -0 0 1
    outer loop
      vertex -0.132 0.11 0.0959997
      vertex 0.132 0.0999994 0.0959997
      vertex 0.132 0.11 0.0959997
    endloop
  endfacet
  facet normal 0 0 1
    outer loop
      vertex 0.132 0.0999994 0.0959997
      vertex -0.132 0.11 0.0959997
      vertex -0.132 0.0999994 0.0959997
    endloop
  endfacet
  facet normal 0 0 -1
    outer loop
      vertex -0.132 0.0999994 0.0859995
      vertex 0.132 0.11 0.0859995
      vertex 0.132 0.0999994 0.0859995
    endloop
  endfacet
  facet normal -0 0 -1
    outer loop
      vertex 0.132 0.11 0.0859995
      vertex -0.132 0.0999994 0.0859995
      vertex -0.132 0.11 0.0859995
    endloop
  endfacet
  facet normal 0 -1 0
    outer loop
      vertex 0.136 0.0999994 -0.0820002
      vertex 0.146 0.0999994 0.0820002
      vertex 0.136 0.0999994 0.0820002
    endloop
  endfacet
  facet normal 0 -1 -0
    outer loop
      vertex 0.146 0.0999994 0.0820002
      vertex 0.136 0.0999994 -0.0820002
      vertex 0.146 0.0999994 -0.0820002
    endloop
  endfacet
  facet normal 0 -1 0
    outer loop
      vertex -0.132 0.0999994 0.0859995
      vertex 0.132 0.0999994 0.0959997
      vertex -0.132 0.0999994 0.0959997
    endloop
  endfacet
  facet normal 0 -1 -0
    outer loop
      vertex 0.132 0.0999994 0.0959997
      vertex -0.132 0.0999994 0.0859995
      vertex 0.132 0.0999994 0.0859995
    endloop
  endfacet
  facet normal 0 1 -0
    outer loop
      vertex 0.146 0.11 -0.0820002
      vertex 0.136 0.11 0.0820002
      vertex 0.146 0.11 0.0820002
    endloop
  endfacet
  facet normal 0 1 0
    outer loop
      vertex 0.136 0.11 0.0820002
      vertex 0.146 0.11 -0.0820002
      vertex 0.136 0.11 -0.0820002
    endloop
  endfacet
  facet normal 0 1 -0
    outer loop
      vertex 0.132 0.11 0.0859995
      vertex -0.132 0.11 0.0959997
      vertex 0.132 0.11 0.0959997
    endloop
  endfacet
  facet normal 0 1 0
    outer loop
      vertex -0.132 0.11 0.0959997
      vertex 0.132 0.11 0.0859995
      vertex -0.132 0.11 0.0859995
    endloop
  endfacet
  facet normal -0 0 1
    outer loop
      vertex -0.132 0.11 -0.0859995
      vertex 0.132 0.0999994 -0.0859995
      vertex 0.132 0.11 -0.0859995
    endloop
  endfacet
  facet normal 0 0 1
    outer loop
      vertex 0.132 0.0999994 -0.0859995
      vertex -0.132 0.11 -0.0859995
      vertex -0.132 0.0999994 -0.0859995
    endloop
  endfacet
  facet normal 0 0 -1
    outer loop
      vertex -0.132 0.0999994 -0.0959997
      vertex 0.132 0.11 -0.0959997
      vertex 0.132 0.0999994 -0.0959997
    endloop
  endfacet
  facet normal -0 0 -1
    outer loop
      vertex 0.132 0.11 -0.0959997
      vertex -0.132 0.0999994 -0.0959997
      vertex -0.132 0.11 -0.0959997
    endloop
  endfacet
  facet normal 0 -1 0
    outer loop
      vertex -0.132 0.0999994 -0.0959997
      vertex 0.132 0.0999994 -0.0859995
      vertex -0.132 0.0999994 -0.0859995
    endloop
  endfacet
  facet normal 0 -1 -0
    outer loop
      vertex 0.132 0.0999994 -0.0859995
      vertex -0.132 0.0999994 -0.0959997
      vertex 0.132 0.0999994 -0.0959997
    endloop
  endfacet
  facet normal 0 -1 0
    outer loop
      vertex -0.146 0.0999994 -0.0820002
      vertex -0.136 0.0999994 0.0820002
      vertex -0.146 0.0999994 0.0820002
    endloop
  endfacet
  facet normal 0 -1 -0
    outer loop
      vertex -0.136 0.0999994 0.0820002
      vertex -0.146 0.0999994 -0.0820002
      vertex -0.136 0.0999994 -0.0820002
    endloop
  endfacet
  facet normal 0 1 -0
    outer loop
      vertex 0.132 0.11 -0.0959997
      vertex -0.132 0.11 -0.0859995
      vertex 0.132 0.11 -0.0859995
    endloop
  endfacet
  facet normal 0 1 0
    outer loop
      vertex -0.132 0.11 -0.0859995
      vertex 0.132 0.11 -0.0959997
      vertex -0.132 0.11 -0.0959997
    endloop
  endfacet
  facet normal 0 1 -0
    outer loop
      vertex -0.136 0.11 -0.0820002
      vertex -0.146 0.11 0.0820002
      vertex -0.136 0.11 0.0820002
    endloop
  endfacet
  facet normal 0 1 0
    outer loop
      vertex -0.146 0.11 0.0820002
      vertex -0.136 0.11 -0.0820002
      vertex -0.146 0.11 -0.0820002
    endloop
  endfacet
  facet normal -1 0 0
    outer loop
      vertex 0.136 0.0999994 -0.0820002
      vertex 0.136 0.11 0.0820002
      vertex 0.136 0.11 -0.0820002
    endloop
  endfacet
  facet normal -1 -0 0
    outer loop
      vertex 0.136 0.11 0.0820002
      vertex 0.136 0.0999994 -0.0820002
      vertex 0.136 0.0999994 0.0820002
    endloop
  endfacet
  facet normal 1 -0 0
    outer loop
      vertex 0.146 0.0999994 0.0820002
      vertex 0.146 0.11 -0.0820002
      vertex 0.146 0.11 0.0820002
    endloop
  endfacet
  facet normal 1 0 0
    outer loop
      vertex 0.146 0.11 -0.0820002
      vertex 0.146 0.0999994 0.0820002
      vertex 0.146 0.0999994 -0.0820002
    endloop
  endfacet
  facet normal -1 0 0
    outer loop
      vertex -0.146 0.0999994 -0.0820002
      vertex -0.146 0.11 0.0820002
      vertex -0.146 0.11 -0.0820002
    endloop
  endfacet
  facet normal -1 -0 0
    outer loop
      vertex -0.146 0.11 0.0820002
      vertex -0.146 0.0999994 -0.0820002
      vertex -0.146 0.0999994 0.0820002
    endloop
  endfacet
  facet normal 1 -0 0
    outer loop
      vertex -0.136 0.0999994 0.0820002
      vertex -0.136 0.11 -0.0820002
      vertex -0.136 0.11 0.0820002
    endloop
  endfacet
  facet normal 1 0 0
    outer loop
      vertex -0.136 0.11 -0.0820002
      vertex -0.136 0.0999994 0.0820002
      vertex -0.136 0.0999994 -0.0820002
    endloop
  endfacet
  facet normal -1 0 0
    outer loop
      vertex -0.15 0.388 -0.0820002
      vertex -0.15 0.4 -0.0999994
      vertex -0.15 0.388 -0.0999994
    endloop
  endfacet
  facet normal -1 0 0
    outer loop
      vertex -0.15 0.4 -0.0999994
      vertex -0.15 0.388 -0.0820002
      vertex -0.15 0.4 0.0999994
    endloop
  endfacet
  facet normal -1 0 0
    outer loop
      vertex -0.15 0.388 0.0820002
      vertex -0.15 0.4 0.0999994
      vertex -0.15 0.388 -0.0820002
    endloop
  endfacet
  facet normal -1 -0 0
    outer loop
      vertex -0.15 0.4 0.0999994
      vertex -0.15 0.388 0.0820002
      vertex -0.15 0.388 0.0999994
    endloop
  endfacet
  facet normal 0 0 1
    outer loop
      vertex 0.15 0.4 0.0999994
      vertex 0.132 0.388 0.0999994
      vertex 0.15 0.388 0.0999994
    endloop
  endfacet
  facet normal 0 0 1
    outer loop
      vertex 0.15 0.4 0.0999994
      vertex -0.132 0.388 0.0999994
      vertex 0.132 0.388 0.0999994
    endloop
  endfacet
  facet normal -0 0 1
    outer loop
      vertex -0.15 0.4 0.0999994
      vertex -0.132 0.388 0.0999994
      vertex 0.15 0.4 0.0999994
    endloop
  endfacet
  facet normal 0 0 1
    outer loop
      vertex -0.132 0.388 0.0999994
      vertex -0.15 0.4 0.0999994
      vertex -0.15 0.388 0.0999994
    endloop
  endfacet
  facet normal 1 0 0
    outer loop
      vertex 0.15 0.388 0.0820002
      vertex 0.15 0.4 0.0999994
      vertex 0.15 0.388 0.0999994
    endloop
  endfacet
  facet normal 1 0 0
    outer loop
      vertex 0.15 0.4 0.0999994
      vertex 0.15 0.388 0.0820002
      vertex 0.15 0.4 -0.0999994
    endloop
  endfacet
  facet normal 1 -0 0
    outer loop
      vertex 0.15 0.388 -0.0820002
      vertex 0.15 0.4 -0.0999994
      vertex 0.15 0.388 0.0820002
    endloop
  endfacet
  facet normal 1 0 0
    outer loop
      vertex 0.15 0.4 -0.0999994
      vertex 0.15 0.388 -0.0820002
      vertex 0.15 0.388 -0.0999994
    endloop
  endfacet
  facet normal 0 1 -0
    outer loop
      vertex 0.15 0.4 -0.0999994
      vertex -0.15 0.4 0.0999994
      vertex 0.15 0.4 0.0999994
    endloop
  endfacet
  facet normal 0 1 0
    outer loop
      vertex -0.15 0.4 0.0999994
      vertex 0.15 0.4 -0.0999994
      vertex -0.15 0.4 -0.0999994
    endloop
  endfacet
  facet normal 0 0 -1
    outer loop
      vertex 0.132 0.388 -0.0999994
      vertex 0.15 0.4 -0.0999994
      vertex 0.15 0.388 -0.0999994
    endloop
  endfacet
  facet normal 0 0 -1
    outer loop
      vertex -0.132 0.388 -0.0999994
      vertex 0.15 0.4 -0.0999994
      vertex 0.132 0.388 -0.0999994
    endloop
  endfacet
  facet normal 0 0 -1
    outer loop
      vertex -0.15 0.4 -0.0999994
      vertex -0.132 0.388 -0.0999994
      vertex -0.15 0.388 -0.0999994
    endloop
  endfacet
  facet normal 0 0 -1
    outer loop
      vertex -0.132 0.388 -0.0999994
      vertex -0.15 0.4 -0.0999994
      vertex 0.15 0.4 -0.0999994
    endloop
  endfacet
endsolid OpenSCAD_Model
